<?xml version="1.0" encoding="UTF-8" standalone="no"?>
<svg
   viewBox="0 0 24 24"
   width="24"
   height="24"
   fill="currentColor"
   version="1.1"
   id="svg1"
   sodipodi:docname="icon.svg"
   inkscape:version="1.4.2 (ebf0e940d0, 2025-05-08)"
   xmlns:inkscape="http://www.inkscape.org/namespaces/inkscape"
   xmlns:sodipodi="http://sodipodi.sourceforge.net/DTD/sodipodi-0.dtd"
   xmlns="http://www.w3.org/2000/svg"
   xmlns:svg="http://www.w3.org/2000/svg">
  <defs
     id="defs1" />
  <sodipodi:namedview
     id="namedview1"
     pagecolor="#ffffff"
     bordercolor="#000000"
     borderopacity="0.25"
     inkscape:showpageshadow="2"
     inkscape:pageopacity="0.0"
     inkscape:pagecheckerboard="0"
     inkscape:deskcolor="#d1d1d1"
     inkscape:zoom="78.291667"
     inkscape:cx="13.788185"
     inkscape:cy="10.173497"
     inkscape:window-width="3840"
     inkscape:window-height="2088"
     inkscape:window-x="0"
     inkscape:window-y="0"
     inkscape:window-maximized="1"
     inkscape:current-layer="svg1" />
  <path
     d="M 12,2 C 10.89,2 8.1224055,1.7384832 8.1224055,1.7384832 L 8.29,8.88 C 8.3022763,9.403115 7.668728,8.8037733 7.288728,9.1737733 6.918728,9.5537733 6.51,9.92 6.88,10.29 l 4.41,4.42 c 0.39,0.39 1.783592,0.492182 2.173592,0.102182 l 0.335492,-0.268855 c 0.37,-0.37 1.353502,-2.320049 0.983502,-2.700049 -0.497478,-0.313258 0.588585,-2.2464951 0.941735,-2.5305531 L 19.556147,4.4342735 C 20.241791,3.5613521 13.11,2 12,2 Z m 0,-2 c 1.66,0 -1.005042,8.8758111 0.547632,9.4630122 L 14.987227,10.385636 16.71,8.88 c 0.504051,-0.4405206 2.026275,4.629691 2.406275,5.019691 0.39,0.38 -0.35082,0.534636 -0.74082,0.924636 L 13.71,14.71 c -0.39,0.39 -1.03,0.39 -1.42,0 L 7.88,10.29 C 7.49,9.9 7.49,9.26 7.88,8.88 8.26,8.49 8.5092138,8.4664354 8.8429537,8.9055455 L 9.7354976,6.8092656 11,3 c 0.522982,-1.5754648 1.34,-3 1,-3 z"
     id="path1"
     sodipodi:nodetypes="scscccccccsscscsccccccscsc" />
</svg>
